# xmcd
#
# Track frame offsets:
#	150
#	15015
#	30303
#	43765
#	60014
#	76352
#	91773
#	102666
#	114855
#	125787
#
# Disc length: 1902 seconds
#
# Revision: 1
# Processed by: cddbd v1.5.2PL0 Copyright (c) Steve Scherf et al.
# Submitted via: audiograbber 1.83.01
#
DISCID=67076c0a
DTITLE=Kris Kristofferson - Feeling Mortal
DYEAR=2012
DGENRE=Country
TTITLE0=Feeling Mortal
TTITLE1=Mama Stewart
TTITLE2=Bread For The Body
TTITLE3=You Don't Tell Me What To Do
TTITLE4=Stairway To The Bottom
TTITLE5=Just Suppose
TTITLE6=Castaways
TTITLE7=My Heart Was The Last One To Know
TTITLE8=The One You Chose
TTITLE9=Ramblin' Jack
EXTD=
EXTT0=
EXTT1=
EXTT2=
EXTT3=
EXTT4=
EXTT5=
EXTT6=
EXTT7=
EXTT8=
EXTT9=
PLAYORDER=
